<svg width="51" height="50" viewBox="0 0 51 50" fill="none" xmlns="http://www.w3.org/2000/svg">
<path d="M41.6536 17.1791L32.5595 8.08493L39.7345 0.909969C40.2435 0.401043 40.9338 0.115136 41.6537 0.115136C42.3735 0.115136 43.0638 0.401043 43.5729 0.909978L43.5729 0.910012L48.8286 6.16019C49.3376 6.66923 49.6235 7.35958 49.6235 8.0794C49.6235 8.79922 49.3376 9.48956 48.8286 9.99861L48.8286 9.99863L41.6536 17.1791ZM4.72913 35.9153L28.1412 12.4977L37.2354 21.5918L13.8233 45.0095L0.182044 49.5565L4.72913 35.9153Z" fill="#EDF738" stroke="black" stroke-width="0.230271"/>
<path d="M37.3982 21.6916L28.1412 12.4346L4.62849 35.9528L0 49.8383L13.8855 45.2098L37.3982 21.6916Z" fill="black"/>
<path d="M26.3192 40.5224C26.3192 38.9499 26.6355 37.5762 27.2682 36.4013C27.9189 35.2264 28.8136 34.3226 29.9523 33.69C31.1092 33.0574 32.4286 32.7411 33.9108 32.7411C35.8087 32.7411 37.3903 33.2381 38.6556 34.2323C39.9389 35.2264 40.7794 36.6272 41.177 38.4347H36.2425C35.8268 37.2779 35.0224 36.6995 33.8295 36.6995C32.9799 36.6995 32.3021 37.0339 31.796 37.7027C31.2899 38.3534 31.0369 39.2933 31.0369 40.5224C31.0369 41.7515 31.2899 42.7005 31.796 43.3693C32.3021 44.02 32.9799 44.3453 33.8295 44.3453C35.0224 44.3453 35.8268 43.7669 36.2425 42.6101H41.177C40.7794 44.3815 39.9389 45.7733 38.6556 46.7855C37.3722 47.7977 35.7906 48.3038 33.9108 48.3038C32.4286 48.3038 31.1092 47.9875 29.9523 47.3549C28.8136 46.7222 27.9189 45.8185 27.2682 44.6436C26.6355 43.4687 26.3192 42.095 26.3192 40.5224ZM45.8261 48.3038C45.0127 48.3038 44.3439 48.0688 43.8197 47.5989C43.3136 47.1109 43.0605 46.5144 43.0605 45.8094C43.0605 45.0864 43.3136 44.4809 43.8197 43.9929C44.3439 43.5048 45.0127 43.2608 45.8261 43.2608C46.6214 43.2608 47.2721 43.5048 47.7782 43.9929C48.3024 44.4809 48.5644 45.0864 48.5644 45.8094C48.5644 46.5144 48.3024 47.1109 47.7782 47.5989C47.2721 48.0688 46.6214 48.3038 45.8261 48.3038Z" fill="black"/>
</svg>
