<svg width="80" height="41" viewBox="0 0 80 41" fill="none" xmlns="http://www.w3.org/2000/svg">
<path d="M45.6422 4.31454C50.0291 4.31454 53.5091 5.64325 56.0821 8.30068C58.6974 10.9581 60.005 14.649 60.005 19.3733V40H49.2487V20.8286C49.2487 18.5508 48.6371 16.8002 47.4139 15.577C46.2328 14.3115 44.5877 13.6788 42.4786 13.6788C40.3696 13.6788 38.7034 14.3115 37.4801 15.577C36.2991 16.8002 35.7085 18.5508 35.7085 20.8286V40H24.9523V20.8286C24.9523 18.5508 24.3406 16.8002 23.1174 15.577C21.9363 14.3115 20.2912 13.6788 18.1821 13.6788C16.0731 13.6788 14.4069 14.3115 13.1837 15.577C12.0026 16.8002 11.412 18.5508 11.412 20.8286V40H0.592502V4.69417H11.412V9.12321C12.5087 7.64687 13.9429 6.48688 15.7145 5.64325C17.4862 4.75744 19.4898 4.31454 21.7254 4.31454C24.3828 4.31454 26.745 4.88398 28.8119 6.02288C30.9209 7.16178 32.566 8.78576 33.7471 10.8948C34.9703 8.95449 36.6365 7.37269 38.7456 6.14943C40.8546 4.92617 43.1535 4.31454 45.6422 4.31454ZM72.6337 40.5062C70.7356 40.5062 69.1748 39.9578 67.9516 38.8611C66.7705 37.7222 66.18 36.3302 66.18 34.6851C66.18 32.9979 66.7705 31.5848 67.9516 30.4459C69.1748 29.307 70.7356 28.7376 72.6337 28.7376C74.4897 28.7376 76.0082 29.307 77.1893 30.4459C78.4126 31.5848 79.0242 32.9979 79.0242 34.6851C79.0242 36.3302 78.4126 37.7222 77.1893 38.8611C76.0082 39.9578 74.4897 40.5062 72.6337 40.5062Z" fill="black"/>
</svg>
