<svg width="34" height="41" viewBox="0 0 34 41" fill="none" xmlns="http://www.w3.org/2000/svg">
<path fill-rule="evenodd" clip-rule="evenodd" d="M26.8027 10.1662C26.8027 12.8624 25.7316 15.4482 23.8251 17.3548C21.9186 19.2613 19.3328 20.3324 16.6365 20.3324C13.9403 20.3324 11.3545 19.2613 9.44793 17.3548C7.5414 15.4482 6.47032 12.8624 6.47032 10.1662C6.47032 7.46995 7.5414 4.88414 9.44793 2.97761C11.3545 1.07108 13.9403 0 16.6365 0C19.3328 0 21.9186 1.07108 23.8251 2.97761C25.7316 4.88414 26.8027 7.46995 26.8027 10.1662ZM0 35.121C0 29.0209 4.99095 24.0299 11.091 24.0299H22.182C28.2821 24.0299 33.273 29.0209 33.273 35.121V40.6665H0V35.121Z" fill="black"/>
</svg>
