<svg width="14" height="14" viewBox="0 0 14 14" fill="none" xmlns="http://www.w3.org/2000/svg">
<g clip-path="url(#clip0_14_3210)">
<path d="M13.1837 11.8999L10.6175 9.333C11.2587 8.3999 11.6675 7.2918 11.6675 6.0668C11.6668 3.033 9.15804 0.524902 6.12494 0.524902C3.09184 0.524902 0.58374 3.033 0.58374 6.0668C0.58374 9.0999 3.09184 11.608 6.12564 11.608C7.35064 11.608 8.45874 11.1999 9.39184 10.558L11.9587 13.1249L13.1837 11.8999ZM2.33374 6.1249C2.33374 4.0249 4.02564 2.333 6.12564 2.333C8.22564 2.333 9.91684 4.0249 9.91684 6.1249C9.91684 8.2249 8.22564 9.9168 6.12564 9.9168C4.02564 9.9168 2.33374 8.2249 2.33374 6.1249Z" fill="black"/>
</g>
<defs>
<clipPath id="clip0_14_3210">
<rect width="14" height="14" fill="white"/>
</clipPath>
</defs>
</svg>
